<svg version="1.1" id="Layer_1" xmlns="http://www.w3.org/2000/svg" xmlns:xlink="http://www.w3.org/1999/xlink" x="0px" y="0px"
	 width="100%" viewBox="0 0 1024 262" enable-background="new 0 0 1024 262" xml:space="preserve">
<path fill="#020202" opacity="1.000000" stroke="none" 
	d="
M679.000000,263.000000 
	C452.666656,263.000000 226.833328,263.000000 1.000000,263.000000 
	C1.000000,175.666672 1.000000,88.333336 1.000000,1.000000 
	C342.333344,1.000000 683.666687,1.000000 1025.000000,1.000000 
	C1025.000000,88.333336 1025.000000,175.666672 1025.000000,263.000000 
	C909.833313,263.000000 794.666687,263.000000 679.000000,263.000000 
M332.500488,50.682434 
	C292.183899,50.678558 251.867294,50.682987 211.550705,50.654137 
	C208.516220,50.651966 205.571655,50.494846 207.408569,54.865849 
	C210.398407,55.329144 213.214233,55.660458 215.985733,56.213680 
	C226.269150,58.266365 228.871475,61.087437 229.601013,71.475563 
	C229.997116,77.115784 230.098297,82.785774 230.106369,88.442665 
	C230.152023,120.429314 230.371750,152.418564 230.042450,184.401871 
	C229.830841,204.954758 227.875305,207.886597 209.525650,209.608017 
	C208.409592,209.712723 207.458694,211.578125 206.430954,212.624283 
	C206.743622,213.090271 207.056305,213.556244 207.368973,214.022232 
	C208.997406,214.022232 210.625824,214.022202 212.254242,214.022247 
	C231.579544,214.022644 250.905579,214.100418 270.229095,213.915115 
	C272.386322,213.894440 276.088562,216.028015 276.446625,211.701721 
	C276.502441,211.027573 272.741791,209.525253 270.640442,209.268219 
	C257.205444,207.624786 253.496887,203.557114 253.368683,189.808777 
	C253.364029,189.309021 253.367477,188.809189 253.367447,188.309402 
	C253.365112,147.326431 253.362808,106.343452 253.360519,65.360481 
	C253.360428,63.600067 253.360504,61.839649 253.360504,59.958191 
	C278.516907,59.958191 303.058807,59.958191 327.927979,59.958191 
	C327.927979,61.418175 327.927826,62.556046 327.928009,63.693916 
	C327.934814,105.009987 327.944824,146.326050 327.946838,187.642120 
	C327.947662,204.368729 325.443481,207.151611 308.903961,209.426025 
	C307.536743,209.614044 306.350189,211.116211 305.079712,212.007782 
	C306.502930,212.679764 307.922089,213.926468 309.350006,213.936646 
	C327.841400,214.068298 346.334045,214.024429 364.826355,214.023987 
	C367.158691,214.023941 369.514862,214.211960 371.812408,213.927811 
	C372.831635,213.801758 373.732300,212.716949 374.686798,212.067337 
	C373.763214,211.207504 372.967133,209.867920 371.891052,209.582016 
	C369.173584,208.859985 366.339081,208.541046 363.535370,208.188538 
	C357.049164,207.373016 353.205505,203.704819 352.352997,197.320786 
	C351.693909,192.384995 351.325195,187.373459 351.312134,182.394318 
	C351.224304,148.908463 351.237946,115.422203 351.300415,81.936226 
	C351.308472,77.617966 351.597137,73.278816 352.089020,68.987534 
	C352.975098,61.257778 355.803253,58.272293 363.526733,56.630798 
	C367.083527,55.874863 370.691101,55.357742 374.369232,54.716003 
	C375.482635,50.993023 373.465332,50.626751 370.484650,50.650112 
	C358.157288,50.746735 345.828674,50.685665 332.500488,50.682434 
M505.495056,190.966202 
	C519.962097,165.111130 508.645264,136.713074 480.107086,128.818863 
	C471.232880,126.364075 461.751251,125.841805 452.494293,125.117371 
	C445.119263,124.540215 437.662933,125.000969 430.264099,125.000969 
	C430.264099,102.661400 430.264099,81.410629 430.264099,59.870438 
	C442.207001,59.870438 453.840485,59.524483 465.446014,59.947102 
	C485.599915,60.681015 490.176208,64.365280 496.243408,83.279495 
	C496.395874,83.754875 496.448486,84.372581 496.777863,84.660957 
	C497.925842,85.666031 499.175110,86.555351 500.385895,87.488670 
	C500.996246,75.507927 500.615845,64.555351 499.835297,53.631386 
	C499.758514,52.556698 497.230743,50.806931 495.834473,50.800938 
	C460.007660,50.647125 424.179932,50.714798 388.352631,50.637733 
	C384.918488,50.630348 384.372772,52.004719 385.227234,54.841492 
	C388.640350,55.417130 391.931854,55.859745 395.173004,56.541828 
	C402.396790,58.062035 405.382050,61.379108 406.198914,68.705399 
	C406.456726,71.017883 406.621307,73.354263 406.622650,75.679825 
	C406.643890,113.007217 406.641815,150.334656 406.606079,187.662033 
	C406.603546,190.319107 406.434174,192.992813 406.107391,195.629669 
	C405.103241,203.732758 402.286530,206.740372 394.370514,208.243134 
	C391.757599,208.739151 389.065613,208.868149 386.492065,209.500061 
	C385.314270,209.789261 384.335663,210.889526 383.266724,211.621964 
	C384.407471,212.426834 385.546509,213.931000 386.689178,213.933731 
	C411.515869,213.993164 436.358368,214.392365 461.164795,213.638519 
	C478.867126,213.100601 495.171051,208.297256 505.495056,190.966202 
M726.918396,55.331882 
	C727.984253,54.438927 729.050110,53.545967 730.115967,52.652996 
	C728.813965,51.988686 727.515686,50.754169 726.209473,50.745731 
	C707.048401,50.621929 687.885986,50.619381 668.724976,50.745876 
	C667.263184,50.755520 665.809265,51.953724 664.351685,52.599449 
	C665.637939,53.784256 666.734924,55.586571 668.242676,56.048649 
	C675.365723,58.231651 681.362915,61.910618 685.248718,68.346336 
	C691.954407,79.452621 698.551208,90.628021 704.999756,101.885513 
	C719.066162,126.441689 733.054260,151.043243 746.920349,175.712769 
	C748.002075,177.637222 749.036133,181.008209 748.115479,182.384506 
	C744.726379,187.451019 740.841797,192.303177 736.497192,196.579315 
	C732.457092,200.555817 727.486328,200.851624 722.262939,197.961655 
	C718.954712,196.131332 715.350647,194.533997 711.682251,193.719284 
	C703.995117,192.012009 697.591614,197.818588 698.545959,205.076416 
	C699.274597,210.618134 702.983215,213.486588 707.740662,215.222870 
	C717.512573,218.789307 726.829651,217.126877 735.549011,211.967331 
	C747.280334,205.025513 754.228027,193.876083 759.493835,181.960205 
	C774.288147,148.482361 788.509338,114.750809 802.893860,81.092545 
	C807.975342,69.202454 814.612915,59.003662 828.237427,55.580616 
	C829.248718,55.326546 829.910645,53.682167 830.734924,52.684109 
	C829.641113,52.017990 828.562317,50.806080 827.450928,50.775330 
	C820.791016,50.591076 814.123657,50.679680 807.458740,50.674633 
	C799.627502,50.668705 791.794312,50.569050 783.967041,50.741455 
	C782.628662,50.770935 781.315857,51.958725 779.991211,52.611427 
	C781.126953,53.732399 782.163818,54.987701 783.435730,55.923626 
	C784.191162,56.479534 785.329529,56.495110 786.274048,56.817314 
	C793.390137,59.244884 795.900513,63.227554 794.518860,70.517616 
	C793.872009,73.930634 792.958313,77.357422 791.656189,80.571617 
	C782.097534,104.166901 772.418091,127.713280 762.733032,151.257080 
	C762.343262,152.204575 761.514648,152.971542 760.540527,154.299789 
	C756.086304,146.551056 751.856506,139.408218 747.832703,132.151184 
	C737.099426,112.793571 726.090088,93.575760 715.912109,73.928551 
	C709.831604,62.190895 712.217102,58.392006 725.125183,55.655640 
	C725.451172,55.586548 725.778992,55.526127 726.918396,55.331882 
M112.439766,215.905243 
	C146.730927,220.748367 172.482346,209.929489 190.528046,180.886459 
	C191.618713,179.131119 191.477432,176.610321 191.909378,174.445679 
	C190.074570,175.666458 187.781723,176.523346 186.477249,178.165421 
	C175.792938,191.614914 163.933289,202.986267 145.846039,205.719467 
	C118.711510,209.819824 88.666336,197.418015 79.440414,165.894302 
	C74.906876,150.403809 74.318871,134.766617 75.863274,118.918236 
	C77.166435,105.545380 80.522087,92.796394 87.212029,80.949738 
	C102.626099,53.654285 145.296890,47.433483 167.930634,69.222534 
	C176.220428,77.202965 181.016632,87.123940 184.914200,97.666740 
	C185.697296,99.784996 185.823822,102.976494 189.802902,101.704956 
	C189.852875,100.692268 189.998459,99.706139 189.935043,98.733627 
	C188.938614,83.453796 187.970901,68.171539 186.822250,52.902954 
	C186.690002,51.145138 185.514999,49.465771 184.823471,47.750027 
	C183.436127,49.080421 181.593048,50.170437 180.742126,51.783768 
	C177.451035,58.023472 173.638077,59.582481 167.274216,56.829903 
	C164.527191,55.641716 161.801575,54.402756 159.040543,53.248348 
	C127.301041,39.977894 87.113693,50.859314 66.418739,78.361771 
	C49.241581,101.189278 44.482796,126.886726 49.710430,154.521729 
	C55.833817,186.891968 80.200615,210.722687 112.439766,215.905243 
M873.799927,61.119061 
	C881.746338,61.119061 889.692749,61.119061 897.872253,61.119061 
	C897.970520,63.026974 898.111450,64.491898 898.111816,65.956848 
	C898.122559,107.117561 898.129272,148.278290 898.093201,189.438980 
	C898.091003,191.924362 897.964539,194.454849 897.493164,196.886276 
	C895.946533,204.863495 892.192200,208.300690 884.143311,209.319992 
	C882.498108,209.528336 880.747131,209.199951 879.177185,209.616898 
	C877.738159,209.999084 876.477722,211.053848 875.138611,211.812256 
	C876.508972,212.554047 877.875000,213.932465 879.250427,213.941910 
	C899.246521,214.079468 919.244263,214.083130 939.240234,213.935211 
	C940.788269,213.923752 942.326233,212.540710 943.868896,211.795197 
	C942.347046,211.042099 940.864929,210.184692 939.285522,209.582443 
	C938.556274,209.304337 937.631470,209.584396 936.804565,209.509644 
	C928.363770,208.746628 922.277954,205.664047 921.845093,196.119064 
	C921.724854,193.467209 921.183228,190.825424 921.180359,188.178650 
	C921.136780,147.851196 921.150391,107.523682 921.151367,67.196182 
	C921.151428,66.196342 920.814148,65.003471 921.241455,64.241035 
	C921.913757,63.041569 923.095398,61.245975 924.074768,61.237408 
	C933.230530,61.157265 942.416565,61.022858 951.538574,61.675873 
	C959.059998,62.214314 965.323792,65.977402 968.955811,72.730728 
	C970.960876,76.458961 972.027649,80.774864 973.004944,84.945900 
	C973.753845,88.141937 974.940491,89.323845 976.842957,88.374092 
	C976.842957,77.231781 976.706482,66.765007 976.905518,56.304615 
	C976.993713,51.671043 975.133423,50.557465 970.681213,50.576424 
	C930.354431,50.748150 890.026672,50.678188 849.699158,50.702980 
	C847.912354,50.704079 846.125732,50.936371 844.147461,51.074329 
	C843.416687,63.642803 842.708374,75.824860 841.979797,88.355415 
	C844.022888,88.249336 845.300659,88.182991 846.523132,88.119522 
	C849.546204,68.826515 855.999939,62.275150 873.799927,61.119061 
M650.353516,87.667374 
	C651.700989,87.908485 653.048401,88.149597 654.172729,88.350777 
	C654.172729,75.524361 654.172729,63.295086 654.172729,51.326527 
	C653.450134,51.007114 653.297913,50.880985 653.145386,50.880684 
	C611.168335,50.798607 569.191223,50.700462 527.214478,50.784134 
	C526.079956,50.786396 524.949280,52.755188 523.136475,54.438744 
	C528.650818,55.436962 532.399475,56.171852 536.168091,56.784721 
	C541.981812,57.730179 545.443848,61.090801 546.357544,66.857101 
	C546.980469,70.788879 547.630981,74.777573 547.619873,78.738983 
	C547.512573,116.881180 547.373108,155.024048 546.990295,193.164185 
	C546.889465,203.212921 543.718689,206.478302 534.060364,208.425598 
	C532.269958,208.786575 530.361267,208.751434 528.669189,209.354004 
	C527.097290,209.913773 525.741821,211.081161 524.291077,211.981018 
	C525.868408,212.662842 527.441711,213.926758 529.023743,213.937943 
	C548.350342,214.074631 567.678711,214.092346 587.005127,213.941040 
	C589.275391,213.923264 593.466431,212.763611 593.485107,212.047913 
	C593.596924,207.748459 589.737122,209.546616 587.536560,209.225418 
	C574.499329,207.322510 571.101562,203.537262 570.958801,190.179199 
	C570.955261,189.845993 570.956970,189.512726 570.956970,189.179489 
	C570.956299,147.358673 570.953186,105.537849 570.967102,63.717033 
	C570.967529,62.445347 571.146301,61.173717 571.242126,59.899963 
	C589.427307,59.899963 607.240723,59.623264 625.041016,59.986706 
	C639.522888,60.282398 646.920105,67.149536 649.436707,81.460709 
	C649.753418,83.261810 649.868286,85.098419 650.353516,87.667374 
z"/>
<path fill="#F9F9F9" opacity="1.000000" stroke="none" 
	d="
M333.000488,50.682480 
	C345.828674,50.685665 358.157288,50.746735 370.484650,50.650112 
	C373.465332,50.626751 375.482635,50.993023 374.369232,54.716003 
	C370.691101,55.357742 367.083527,55.874863 363.526733,56.630798 
	C355.803253,58.272293 352.975098,61.257778 352.089020,68.987534 
	C351.597137,73.278816 351.308472,77.617966 351.300415,81.936226 
	C351.237946,115.422203 351.224304,148.908463 351.312134,182.394318 
	C351.325195,187.373459 351.693909,192.384995 352.352997,197.320786 
	C353.205505,203.704819 357.049164,207.373016 363.535370,208.188538 
	C366.339081,208.541046 369.173584,208.859985 371.891052,209.582016 
	C372.967133,209.867920 373.763214,211.207504 374.686798,212.067322 
	C373.732300,212.716949 372.831635,213.801758 371.812408,213.927811 
	C369.514862,214.211960 367.158691,214.023941 364.826355,214.023987 
	C346.334045,214.024429 327.841400,214.068298 309.350006,213.936646 
	C307.922089,213.926468 306.502930,212.679764 305.079712,212.007782 
	C306.350189,211.116211 307.536743,209.614044 308.903961,209.426025 
	C325.443481,207.151611 327.947662,204.368729 327.946838,187.642120 
	C327.944824,146.326050 327.934814,105.009987 327.928009,63.693916 
	C327.927826,62.556046 327.927979,61.418175 327.927979,59.958191 
	C303.058807,59.958191 278.516907,59.958191 253.360504,59.958191 
	C253.360504,61.839649 253.360428,63.600067 253.360519,65.360481 
	C253.362808,106.343452 253.365112,147.326431 253.367447,188.309402 
	C253.367477,188.809189 253.364029,189.309021 253.368683,189.808777 
	C253.496887,203.557114 257.205444,207.624786 270.640442,209.268219 
	C272.741791,209.525253 276.502441,211.027573 276.446625,211.701721 
	C276.088562,216.028015 272.386322,213.894440 270.229095,213.915115 
	C250.905579,214.100418 231.579544,214.022644 212.254242,214.022247 
	C210.625824,214.022202 208.997406,214.022232 207.368973,214.022232 
	C207.056305,213.556244 206.743622,213.090271 206.430954,212.624283 
	C207.458694,211.578125 208.409592,209.712723 209.525650,209.608017 
	C227.875305,207.886597 229.830841,204.954758 230.042450,184.401871 
	C230.371750,152.418564 230.152023,120.429314 230.106369,88.442665 
	C230.098297,82.785774 229.997116,77.115784 229.601013,71.475563 
	C228.871475,61.087437 226.269150,58.266365 215.985733,56.213680 
	C213.214233,55.660458 210.398407,55.329144 207.408569,54.865849 
	C205.571655,50.494846 208.516220,50.651966 211.550705,50.654137 
	C251.867294,50.682987 292.183899,50.678558 333.000488,50.682480 
z"/>
<path fill="#F8F8F8" opacity="1.000000" stroke="none" 
	d="
M505.314758,191.286484 
	C495.171051,208.297256 478.867126,213.100601 461.164795,213.638519 
	C436.358368,214.392365 411.515869,213.993164 386.689178,213.933731 
	C385.546509,213.931000 384.407471,212.426834 383.266724,211.621964 
	C384.335663,210.889526 385.314270,209.789261 386.492065,209.500061 
	C389.065613,208.868149 391.757599,208.739151 394.370514,208.243134 
	C402.286530,206.740372 405.103241,203.732758 406.107391,195.629669 
	C406.434174,192.992813 406.603546,190.319107 406.606079,187.662033 
	C406.641815,150.334656 406.643890,113.007217 406.622650,75.679825 
	C406.621307,73.354263 406.456726,71.017883 406.198914,68.705399 
	C405.382050,61.379108 402.396790,58.062035 395.173004,56.541828 
	C391.931854,55.859745 388.640350,55.417130 385.227234,54.841492 
	C384.372772,52.004719 384.918488,50.630348 388.352631,50.637733 
	C424.179932,50.714798 460.007660,50.647125 495.834473,50.800938 
	C497.230743,50.806931 499.758514,52.556698 499.835297,53.631386 
	C500.615845,64.555351 500.996246,75.507927 500.385895,87.488670 
	C499.175110,86.555351 497.925842,85.666031 496.777863,84.660957 
	C496.448486,84.372581 496.395874,83.754875 496.243408,83.279495 
	C490.176208,64.365280 485.599915,60.681015 465.446014,59.947102 
	C453.840485,59.524483 442.207001,59.870438 430.264099,59.870438 
	C430.264099,81.410629 430.264099,102.661400 430.264099,125.000969 
	C437.662933,125.000969 445.119263,124.540215 452.494293,125.117371 
	C461.751251,125.841805 471.232880,126.364075 480.107086,128.818863 
	C508.645264,136.713074 519.962097,165.111130 505.314758,191.286484 
M460.724731,136.552353 
	C451.843079,135.695847 442.970917,134.674469 434.069397,134.164352 
	C432.766510,134.089706 430.137390,136.435608 430.122986,137.684586 
	C429.877197,158.997513 429.906158,180.314407 430.063751,201.629013 
	C430.071960,202.742859 431.724609,204.761810 432.682434,204.805405 
	C439.942902,205.136017 447.342468,205.953629 454.469208,204.965149 
	C470.811157,202.698578 483.161530,189.109100 484.695709,172.980957 
	C486.391052,155.159042 478.805420,143.330093 460.724731,136.552353 
z"/>
<path fill="#F7F7F7" opacity="1.000000" stroke="none" 
	d="
M726.512207,55.396774 
	C725.778992,55.526127 725.451172,55.586548 725.125183,55.655640 
	C712.217102,58.392006 709.831604,62.190895 715.912109,73.928551 
	C726.090088,93.575760 737.099426,112.793571 747.832703,132.151184 
	C751.856506,139.408218 756.086304,146.551056 760.540527,154.299789 
	C761.514648,152.971542 762.343262,152.204575 762.733032,151.257080 
	C772.418091,127.713280 782.097534,104.166901 791.656189,80.571617 
	C792.958313,77.357422 793.872009,73.930634 794.518860,70.517616 
	C795.900513,63.227554 793.390137,59.244884 786.274048,56.817314 
	C785.329529,56.495110 784.191162,56.479534 783.435730,55.923626 
	C782.163818,54.987701 781.126953,53.732399 779.991211,52.611423 
	C781.315857,51.958725 782.628662,50.770935 783.967041,50.741455 
	C791.794312,50.569050 799.627502,50.668705 807.458740,50.674633 
	C814.123657,50.679680 820.791016,50.591076 827.450928,50.775330 
	C828.562317,50.806080 829.641113,52.017990 830.734924,52.684120 
	C829.910645,53.682167 829.248718,55.326546 828.237427,55.580616 
	C814.612915,59.003662 807.975342,69.202454 802.893860,81.092545 
	C788.509338,114.750809 774.288147,148.482361 759.493835,181.960205 
	C754.228027,193.876083 747.280334,205.025513 735.549011,211.967331 
	C726.829651,217.126877 717.512573,218.789307 707.740662,215.222870 
	C702.983215,213.486588 699.274597,210.618134 698.545959,205.076416 
	C697.591614,197.818588 703.995117,192.012009 711.682251,193.719284 
	C715.350647,194.533997 718.954712,196.131332 722.262939,197.961655 
	C727.486328,200.851624 732.457092,200.555817 736.497192,196.579315 
	C740.841797,192.303177 744.726379,187.451019 748.115479,182.384506 
	C749.036133,181.008209 748.002075,177.637222 746.920349,175.712769 
	C733.054260,151.043243 719.066162,126.441689 704.999756,101.885513 
	C698.551208,90.628021 691.954407,79.452621 685.248718,68.346336 
	C681.362915,61.910618 675.365723,58.231651 668.242676,56.048649 
	C666.734924,55.586571 665.637939,53.784256 664.351685,52.599457 
	C665.809265,51.953724 667.263184,50.755520 668.724976,50.745876 
	C687.885986,50.619381 707.048401,50.621929 726.209473,50.745731 
	C727.515686,50.754169 728.813965,51.988686 730.115967,52.653004 
	C729.050110,53.545967 727.984253,54.438927 726.512207,55.396774 
z"/>
<path fill="#F7F7F7" opacity="1.000000" stroke="none" 
	d="
M112.005417,215.850388 
	C80.200615,210.722687 55.833817,186.891968 49.710430,154.521729 
	C44.482796,126.886726 49.241581,101.189278 66.418739,78.361771 
	C87.113693,50.859314 127.301041,39.977894 159.040543,53.248348 
	C161.801575,54.402756 164.527191,55.641716 167.274216,56.829903 
	C173.638077,59.582481 177.451035,58.023472 180.742126,51.783768 
	C181.593048,50.170437 183.436127,49.080421 184.823456,47.750031 
	C185.514999,49.465771 186.690002,51.145138 186.822250,52.902954 
	C187.970901,68.171539 188.938614,83.453796 189.935043,98.733627 
	C189.998459,99.706139 189.852875,100.692268 189.802902,101.704956 
	C185.823822,102.976494 185.697296,99.784996 184.914200,97.666740 
	C181.016632,87.123940 176.220428,77.202965 167.930634,69.222534 
	C145.296890,47.433483 102.626099,53.654285 87.212029,80.949738 
	C80.522087,92.796394 77.166435,105.545380 75.863274,118.918236 
	C74.318871,134.766617 74.906876,150.403809 79.440414,165.894302 
	C88.666336,197.418015 118.711510,209.819824 145.846039,205.719467 
	C163.933289,202.986267 175.792938,191.614914 186.477249,178.165421 
	C187.781723,176.523346 190.074570,175.666458 191.909378,174.445679 
	C191.477432,176.610321 191.618713,179.131119 190.528046,180.886459 
	C172.482346,209.929489 146.730927,220.748367 112.005417,215.850388 
z"/>
<path fill="#F8F8F8" opacity="1.000000" stroke="none" 
	d="
M873.336304,61.133369 
	C855.999939,62.275150 849.546204,68.826515 846.523132,88.119522 
	C845.300659,88.182991 844.022888,88.249336 841.979797,88.355415 
	C842.708374,75.824860 843.416687,63.642803 844.147461,51.074329 
	C846.125732,50.936371 847.912354,50.704079 849.699158,50.702980 
	C890.026672,50.678188 930.354431,50.748150 970.681213,50.576424 
	C975.133423,50.557465 976.993713,51.671043 976.905518,56.304615 
	C976.706482,66.765007 976.842957,77.231781 976.842957,88.374092 
	C974.940491,89.323845 973.753845,88.141937 973.004944,84.945900 
	C972.027649,80.774864 970.960876,76.458961 968.955811,72.730728 
	C965.323792,65.977402 959.059998,62.214314 951.538574,61.675873 
	C942.416565,61.022858 933.230530,61.157265 924.074768,61.237408 
	C923.095398,61.245975 921.913757,63.041569 921.241455,64.241035 
	C920.814148,65.003471 921.151428,66.196342 921.151367,67.196182 
	C921.150391,107.523682 921.136780,147.851196 921.180359,188.178650 
	C921.183228,190.825424 921.724854,193.467209 921.845093,196.119064 
	C922.277954,205.664047 928.363770,208.746628 936.804565,209.509644 
	C937.631470,209.584396 938.556274,209.304337 939.285522,209.582443 
	C940.864929,210.184692 942.347046,211.042099 943.868896,211.795181 
	C942.326233,212.540710 940.788269,213.923752 939.240234,213.935211 
	C919.244263,214.083130 899.246521,214.079468 879.250427,213.941910 
	C877.875000,213.932465 876.508972,212.554047 875.138611,211.812256 
	C876.477722,211.053848 877.738159,209.999084 879.177185,209.616898 
	C880.747131,209.199951 882.498108,209.528336 884.143311,209.319992 
	C892.192200,208.300690 895.946533,204.863495 897.493164,196.886276 
	C897.964539,194.454849 898.091003,191.924362 898.093201,189.438980 
	C898.129272,148.278290 898.122559,107.117561 898.111816,65.956848 
	C898.111450,64.491898 897.970520,63.026974 897.872253,61.119061 
	C889.692749,61.119061 881.746338,61.119061 873.336304,61.133369 
z"/>
<path fill="#F8F8F8" opacity="1.000000" stroke="none" 
	d="
M650.215088,87.292976 
	C649.868286,85.098419 649.753418,83.261810 649.436707,81.460709 
	C646.920105,67.149536 639.522888,60.282398 625.041016,59.986706 
	C607.240723,59.623264 589.427307,59.899963 571.242126,59.899963 
	C571.146301,61.173717 570.967529,62.445347 570.967102,63.717033 
	C570.953186,105.537849 570.956299,147.358673 570.956970,189.179489 
	C570.956970,189.512726 570.955261,189.845993 570.958801,190.179199 
	C571.101562,203.537262 574.499329,207.322510 587.536560,209.225418 
	C589.737122,209.546616 593.596924,207.748459 593.485107,212.047913 
	C593.466431,212.763611 589.275391,213.923264 587.005127,213.941040 
	C567.678711,214.092346 548.350342,214.074631 529.023743,213.937943 
	C527.441711,213.926758 525.868408,212.662842 524.291077,211.981018 
	C525.741821,211.081161 527.097290,209.913773 528.669189,209.354004 
	C530.361267,208.751434 532.269958,208.786575 534.060364,208.425598 
	C543.718689,206.478302 546.889465,203.212921 546.990295,193.164185 
	C547.373108,155.024048 547.512573,116.881180 547.619873,78.738983 
	C547.630981,74.777573 546.980469,70.788879 546.357544,66.857101 
	C545.443848,61.090801 541.981812,57.730179 536.168091,56.784721 
	C532.399475,56.171852 528.650818,55.436962 523.136475,54.438744 
	C524.949280,52.755188 526.079956,50.786396 527.214478,50.784134 
	C569.191223,50.700462 611.168335,50.798607 653.145386,50.880684 
	C653.297913,50.880985 653.450134,51.007114 654.172729,51.326527 
	C654.172729,63.295086 654.172729,75.524361 654.172729,88.350777 
	C653.048401,88.149597 651.700989,87.908485 650.215088,87.292976 
z"/>
<path fill="#040404" opacity="1.000000" stroke="none" 
	d="
M461.103271,136.666962 
	C478.805420,143.330093 486.391052,155.159042 484.695709,172.980957 
	C483.161530,189.109100 470.811157,202.698578 454.469208,204.965149 
	C447.342468,205.953629 439.942902,205.136017 432.682434,204.805405 
	C431.724609,204.761810 430.071960,202.742859 430.063751,201.629013 
	C429.906158,180.314407 429.877197,158.997513 430.122986,137.684586 
	C430.137390,136.435608 432.766510,134.089706 434.069397,134.164352 
	C442.970917,134.674469 451.843079,135.695847 461.103271,136.666962 
z"/>
</svg>