<svg version="1.1" id="Layer_1" xmlns="http://www.w3.org/2000/svg" xmlns:xlink="http://www.w3.org/1999/xlink" x="0px" y="0px"
	 width="100%" viewBox="0 0 880 487" enable-background="new 0 0 880 487" xml:space="preserve">
<path fill="#010000" opacity="1.000000" stroke="none" 
	d="
M565.000000,488.000000 
	C376.666687,488.000000 188.833405,488.000000 1.000076,488.000000 
	C1.000050,325.666718 1.000050,163.333466 1.000025,1.000141 
	C294.333221,1.000094 587.666443,1.000094 880.999756,1.000047 
	C880.999817,163.333191 880.999817,325.666382 880.999878,487.999786 
	C775.833313,488.000000 670.666687,488.000000 565.000000,488.000000 
M778.499939,443.170593 
	C799.245605,443.170593 819.991272,443.170593 840.706177,443.170593 
	C840.706177,439.127167 840.706177,435.866699 840.706177,432.390198 
	C838.808838,432.179565 837.187073,431.955322 835.557739,431.825256 
	C812.944702,430.020325 793.714111,421.066223 778.769653,403.931091 
	C768.815063,392.517273 759.108521,380.826782 750.097351,368.662720 
	C729.377258,340.692841 709.498169,312.096527 688.601990,284.261749 
	C674.253906,265.149231 658.859314,246.788986 635.541565,237.103516 
	C639.489441,234.661804 643.425720,232.517670 647.051147,229.936935 
	C667.708679,215.232239 682.040222,195.226303 692.528015,172.654938 
	C702.126953,151.996490 710.013428,130.547684 718.953308,109.574539 
	C721.743896,103.027809 724.963928,96.525291 728.959656,90.665550 
	C734.191040,82.993774 741.158447,81.022781 750.025146,83.827492 
	C754.764832,85.326782 759.280518,87.530800 763.906189,89.394691 
	C772.076538,92.686920 780.046875,96.690468 788.473572,99.084595 
	C803.401123,103.325691 819.271545,93.747643 823.170166,79.028526 
	C827.144592,64.023300 818.635010,49.198540 803.479858,44.645691 
	C791.636597,41.087753 779.502930,40.386112 767.359863,41.867653 
	C738.138184,45.432899 714.440247,57.681015 702.135010,86.095543 
	C694.066589,104.726662 686.690857,123.657936 679.018127,142.460190 
	C671.525818,160.820358 664.410950,179.429901 650.924072,194.497925 
	C635.819153,211.373688 619.595886,226.556870 595.063477,227.705566 
	C586.004089,228.129761 576.952759,228.726471 567.799683,229.250092 
	C567.653015,227.063034 567.507935,225.907593 567.507812,224.752121 
	C567.503540,189.091690 567.337708,153.429810 567.631470,117.771736 
	C567.716248,107.484680 568.807739,97.170868 570.007935,86.936188 
	C571.860168,71.140930 581.121521,62.205982 596.748718,59.863724 
	C605.917236,58.489521 615.116211,57.319023 624.481812,56.032124 
	C624.481812,52.935528 624.481812,49.558640 624.481812,46.104820 
	C567.522583,46.104820 510.939392,46.104820 454.199860,46.104820 
	C454.199860,49.780575 454.199860,53.145416 454.199860,57.044628 
	C456.897705,57.044628 459.251343,56.735840 461.496521,57.098495 
	C470.834137,58.606750 480.259644,59.828667 489.422668,62.088955 
	C498.892456,64.424919 505.164886,70.934212 507.050415,80.570633 
	C508.864716,89.843033 510.820709,99.295738 510.855042,108.676025 
	C511.176453,196.492706 511.164337,284.310974 511.038544,372.128448 
	C511.024994,381.580811 510.342407,391.147064 508.720642,400.442505 
	C507.607758,406.821075 505.133331,413.299835 501.818512,418.871796 
	C497.588654,425.981964 489.363281,427.474365 481.910645,428.962158 
	C472.835785,430.773804 463.575775,431.658264 454.231262,432.966827 
	C454.231262,436.144287 454.231262,439.503601 454.231262,442.841980 
	C511.229858,442.841980 567.807556,442.841980 624.445679,442.841980 
	C624.445679,439.130035 624.445679,435.761322 624.445679,432.966522 
	C614.588013,431.601776 605.135925,430.703094 595.859192,428.901123 
	C585.192871,426.829285 575.451355,422.675293 572.384521,410.805481 
	C570.437439,403.269379 568.328796,395.497955 568.229919,387.807159 
	C567.664368,343.823395 567.676575,299.832153 567.516907,255.843369 
	C567.512878,254.727936 567.789551,253.611496 567.943298,252.433990 
	C588.354980,251.653549 604.202026,258.612762 617.064209,274.937500 
	C659.154602,328.358673 698.555481,383.679077 736.578491,440.023804 
	C737.629150,441.580750 740.144226,442.978455 742.009583,443.021637 
	C753.834534,443.295563 765.668701,443.166656 778.499939,443.170593 
M168.143677,93.485382 
	C168.422333,96.467072 168.929916,99.447601 168.945068,102.430626 
	C169.149719,142.759247 169.669098,183.091492 169.326218,223.416153 
	C169.013123,260.238495 167.623062,297.053802 160.877640,333.399475 
	C157.236313,353.019745 151.473053,371.858765 139.422913,388.267120 
	C126.737480,405.540588 109.263947,408.646667 91.461342,396.714905 
	C86.771736,393.571838 81.996071,390.375916 76.858856,388.115936 
	C61.560097,381.385590 44.395103,391.145996 41.778374,407.716278 
	C39.577461,421.653442 47.604912,436.142181 61.474464,442.619843 
	C78.333992,450.493958 95.770386,448.873962 112.740707,443.791199 
	C138.194229,436.167633 154.941757,418.003601 167.312805,395.337830 
	C177.109039,377.389526 181.505234,357.692474 184.953918,337.811554 
	C192.005829,297.158661 194.393539,256.069733 194.911346,214.899399 
	C195.496078,168.408310 195.325150,121.907707 195.481232,75.411247 
	C195.489426,72.971542 195.482285,70.531792 195.482285,67.837387 
	C236.778305,67.837387 277.328186,67.837387 318.236298,67.837387 
	C318.347717,70.145378 318.524780,72.103157 318.524902,74.060951 
	C318.531219,172.389481 318.685272,270.718628 318.321777,369.045837 
	C318.272949,382.251465 316.055603,395.518280 313.993073,408.623077 
	C312.606049,417.435852 306.924500,423.529541 298.250793,426.405273 
	C295.255493,427.398315 292.258118,428.565582 289.166962,429.054932 
	C280.005798,430.505005 270.797455,431.656830 261.340027,432.962219 
	C261.340027,436.078430 261.340027,439.450134 261.340027,442.793854 
	C318.256866,442.793854 374.821259,442.793854 431.551514,442.793854 
	C431.551514,439.166443 431.551514,435.920441 431.551514,432.998169 
	C421.711487,431.621948 412.136200,430.616760 402.695129,428.881348 
	C389.686066,426.490051 379.853394,419.873016 377.989441,405.782715 
	C376.314423,393.120636 374.749695,380.326660 374.704529,367.585327 
	C374.412537,285.256958 374.458099,202.926895 374.655090,120.598007 
	C374.682068,109.316643 375.682617,97.976532 377.128387,86.779312 
	C378.247009,78.115898 380.908081,69.380394 389.514801,65.099747 
	C395.238525,62.253010 401.625092,60.386353 407.924500,59.139870 
	C415.675293,57.606213 423.644043,57.174252 431.506195,56.267551 
	C431.506195,52.852100 431.506195,49.600754 431.506195,46.238228 
	C324.975952,46.238228 218.785995,46.238228 112.490219,46.238228 
	C112.490219,49.929981 112.490219,53.177597 112.490219,56.000813 
	C122.386795,57.383175 131.955978,58.454224 141.424271,60.104263 
	C155.816910,62.612473 164.580734,71.025017 166.870224,85.718910 
	C167.229126,88.022285 167.640991,90.317421 168.143677,93.485382 
z"/>
<path fill="#FC8403" opacity="1.000000" stroke="none" 
	d="
M777.999878,443.170593 
	C765.668701,443.166656 753.834534,443.295563 742.009583,443.021637 
	C740.144226,442.978455 737.629150,441.580750 736.578491,440.023804 
	C698.555481,383.679077 659.154602,328.358673 617.064209,274.937500 
	C604.202026,258.612762 588.354980,251.653549 567.943298,252.433990 
	C567.789551,253.611496 567.512878,254.727936 567.516907,255.843369 
	C567.676575,299.832153 567.664368,343.823395 568.229919,387.807159 
	C568.328796,395.497955 570.437439,403.269379 572.384521,410.805481 
	C575.451355,422.675293 585.192871,426.829285 595.859192,428.901123 
	C605.135925,430.703094 614.588013,431.601776 624.445679,432.966522 
	C624.445679,435.761322 624.445679,439.130035 624.445679,442.841980 
	C567.807556,442.841980 511.229858,442.841980 454.231262,442.841980 
	C454.231262,439.503601 454.231262,436.144287 454.231262,432.966827 
	C463.575775,431.658264 472.835785,430.773804 481.910645,428.962158 
	C489.363281,427.474365 497.588654,425.981964 501.818512,418.871796 
	C505.133331,413.299835 507.607758,406.821075 508.720642,400.442505 
	C510.342407,391.147064 511.024994,381.580811 511.038544,372.128448 
	C511.164337,284.310974 511.176453,196.492706 510.855042,108.676025 
	C510.820709,99.295738 508.864716,89.843033 507.050415,80.570633 
	C505.164886,70.934212 498.892456,64.424919 489.422668,62.088955 
	C480.259644,59.828667 470.834137,58.606750 461.496521,57.098495 
	C459.251343,56.735840 456.897705,57.044628 454.199860,57.044628 
	C454.199860,53.145416 454.199860,49.780575 454.199860,46.104820 
	C510.939392,46.104820 567.522583,46.104820 624.481812,46.104820 
	C624.481812,49.558640 624.481812,52.935528 624.481812,56.032124 
	C615.116211,57.319023 605.917236,58.489521 596.748718,59.863724 
	C581.121521,62.205982 571.860168,71.140930 570.007935,86.936188 
	C568.807739,97.170868 567.716248,107.484680 567.631470,117.771736 
	C567.337708,153.429810 567.503540,189.091690 567.507812,224.752121 
	C567.507935,225.907593 567.653015,227.063034 567.799683,229.250092 
	C576.952759,228.726471 586.004089,228.129761 595.063477,227.705566 
	C619.595886,226.556870 635.819153,211.373688 650.924072,194.497925 
	C664.410950,179.429901 671.525818,160.820358 679.018127,142.460190 
	C686.690857,123.657936 694.066589,104.726662 702.135010,86.095543 
	C714.440247,57.681015 738.138184,45.432899 767.359863,41.867653 
	C779.502930,40.386112 791.636597,41.087753 803.479858,44.645691 
	C818.635010,49.198540 827.144592,64.023300 823.170166,79.028526 
	C819.271545,93.747643 803.401123,103.325691 788.473572,99.084595 
	C780.046875,96.690468 772.076538,92.686920 763.906189,89.394691 
	C759.280518,87.530800 754.764832,85.326782 750.025146,83.827492 
	C741.158447,81.022781 734.191040,82.993774 728.959656,90.665550 
	C724.963928,96.525291 721.743896,103.027809 718.953308,109.574539 
	C710.013428,130.547684 702.126953,151.996490 692.528015,172.654938 
	C682.040222,195.226303 667.708679,215.232239 647.051147,229.936935 
	C643.425720,232.517670 639.489441,234.661804 635.541565,237.103516 
	C658.859314,246.788986 674.253906,265.149231 688.601990,284.261749 
	C709.498169,312.096527 729.377258,340.692841 750.097351,368.662720 
	C759.108521,380.826782 768.815063,392.517273 778.769653,403.931091 
	C793.714111,421.066223 812.944702,430.020325 835.557739,431.825256 
	C837.187073,431.955322 838.808838,432.179565 840.706177,432.390198 
	C840.706177,435.866699 840.706177,439.127167 840.706177,443.170593 
	C819.991272,443.170593 799.245605,443.170593 777.999878,443.170593 
z"/>
<path fill="#FB8403" opacity="1.000000" stroke="none" 
	d="
M168.086029,93.050873 
	C167.640991,90.317421 167.229126,88.022285 166.870224,85.718910 
	C164.580734,71.025017 155.816910,62.612473 141.424271,60.104263 
	C131.955978,58.454224 122.386795,57.383175 112.490219,56.000813 
	C112.490219,53.177597 112.490219,49.929981 112.490219,46.238228 
	C218.785995,46.238228 324.975952,46.238228 431.506195,46.238228 
	C431.506195,49.600754 431.506195,52.852100 431.506195,56.267551 
	C423.644043,57.174252 415.675293,57.606213 407.924500,59.139870 
	C401.625092,60.386353 395.238525,62.253010 389.514801,65.099747 
	C380.908081,69.380394 378.247009,78.115898 377.128387,86.779312 
	C375.682617,97.976532 374.682068,109.316643 374.655090,120.598007 
	C374.458099,202.926895 374.412537,285.256958 374.704529,367.585327 
	C374.749695,380.326660 376.314423,393.120636 377.989441,405.782715 
	C379.853394,419.873016 389.686066,426.490051 402.695129,428.881348 
	C412.136200,430.616760 421.711487,431.621948 431.551514,432.998169 
	C431.551514,435.920441 431.551514,439.166443 431.551514,442.793854 
	C374.821259,442.793854 318.256866,442.793854 261.340027,442.793854 
	C261.340027,439.450134 261.340027,436.078430 261.340027,432.962219 
	C270.797455,431.656830 280.005798,430.505005 289.166962,429.054932 
	C292.258118,428.565582 295.255493,427.398315 298.250793,426.405273 
	C306.924500,423.529541 312.606049,417.435852 313.993073,408.623077 
	C316.055603,395.518280 318.272949,382.251465 318.321777,369.045837 
	C318.685272,270.718628 318.531219,172.389481 318.524902,74.060951 
	C318.524780,72.103157 318.347717,70.145378 318.236298,67.837387 
	C277.328186,67.837387 236.778305,67.837387 195.482285,67.837387 
	C195.482285,70.531792 195.489426,72.971542 195.481232,75.411247 
	C195.325150,121.907707 195.496078,168.408310 194.911346,214.899399 
	C194.393539,256.069733 192.005829,297.158661 184.953918,337.811554 
	C181.505234,357.692474 177.109039,377.389526 167.312805,395.337830 
	C154.941757,418.003601 138.194229,436.167633 112.740707,443.791199 
	C95.770386,448.873962 78.333992,450.493958 61.474464,442.619843 
	C47.604912,436.142181 39.577461,421.653442 41.778374,407.716278 
	C44.395103,391.145996 61.560097,381.385590 76.858856,388.115936 
	C81.996071,390.375916 86.771736,393.571838 91.461342,396.714905 
	C109.263947,408.646667 126.737480,405.540588 139.422913,388.267120 
	C151.473053,371.858765 157.236313,353.019745 160.877640,333.399475 
	C167.623062,297.053802 169.013123,260.238495 169.326218,223.416153 
	C169.669098,183.091492 169.149719,142.759247 168.945068,102.430626 
	C168.929916,99.447601 168.422333,96.467072 168.086029,93.050873 
z"/>
</svg>